# xmcd CD database file
#
# Track frame offsets:
#	150
#	11886
#	24084
#	36200
#	48510
#	62034
#	75931
#	87924
#	99586
#	114560
#	127623
#	141726
#
# Disc length: 2034 seconds
#
# Revision: 1
# Processed by: cddbd v1.5.2PL0 Copyright (c) Steve Scherf et al.
# Submitted via: CDex 1.70beta2
#
DISCID=9307f00c
DTITLE=Die Ladiner und die kleine Nicol - Ein bisschen fröhlich sein
DYEAR=2006
DGENRE=Volksmusik
TTITLE0=Greif nicht nach den Sternen
TTITLE1=Ein bisschen fröhlich sein
TTITLE2=Meine kleine Harmonika
TTITLE3=Was ist die Liebe
TTITLE4=Ciao, bella Luna
TTITLE5=Un sogno in me
TTITLE6=Ein kleiner Klingelton
TTITLE7=Der alte Baum
TTITLE8=Erzähl mir deine Träume
TTITLE9=Sunëde cun me
TTITLE10=Das allerschönste Geschenk
TTITLE11=So schön sind Kinderstimmen
EXTD=YEAR: 2006
EXTT0=
EXTT1=
EXTT2=
EXTT3=
EXTT4=
EXTT5=
EXTT6=
EXTT7=
EXTT8=
EXTT9=
EXTT10=
EXTT11=
PLAYORDER=
